<?xml version="1.0" standalone="no"?>
<!DOCTYPE svg PUBLIC "-//W3C//DTD SVG 20010904//EN"
 "http://www.w3.org/TR/2001/REC-SVG-20010904/DTD/svg10.dtd">
<svg version="1.0" xmlns="http://www.w3.org/2000/svg"
 width="512.000000pt" height="512.000000pt" viewBox="0 0 512.000000 512.000000"
 preserveAspectRatio="xMidYMid meet">
<metadata>
Created by potrace 1.11, written by Peter Selinger 2001-2013
</metadata>
<g transform="translate(0.000000,512.000000) scale(0.100000,-0.100000)"
fill="#000000" stroke="none">
<path d="M0 2560 l0 -2560 2560 0 2560 0 0 2560 0 2560 -2560 0 -2560 0 0
-2560z m2039 1489 c43 -34 57 -40 81 -35 22 4 36 0 56 -18 52 -44 51 -77 -36
-699 -43 -309 -76 -565 -74 -568 2 -4 23 -10 47 -14 67 -11 80 -25 20 -23 -29
2 -52 -1 -53 -7 0 -5 19 -11 42 -12 96 -5 238 -36 255 -56 18 -19 17 -19 -17
-12 l-35 7 25 -18 c14 -9 26 -18 28 -19 1 -1 0 -10 -4 -19 -5 -14 -27 -16
-168 -16 l-163 0 -11 -37 c-33 -111 -70 -457 -79 -738 -5 -165 -3 -196 12
-235 19 -48 23 -126 8 -141 -18 -18 -184 26 -283 74 -31 16 -55 78 -69 181
-19 133 -11 530 15 805 l6 64 -134 -6 c-73 -3 -184 -16 -246 -28 -133 -25
-108 2 -252 -269 -143 -268 -267 -538 -291 -633 -19 -76 -54 -86 -150 -47 -25
11 -29 18 -29 52 0 78 86 298 253 650 95 198 98 178 -30 176 -92 -2 -116 1
-165 21 -62 24 -67 33 -40 69 15 19 53 31 222 70 l205 48 156 276 c354 625
559 942 728 1122 38 40 88 76 107 76 6 0 35 -19 63 -41z m2030 0 c42 -34 57
-40 81 -35 22 4 36 -1 58 -19 50 -42 48 -78 -38 -700 -43 -308 -76 -563 -74
-567 2 -3 23 -9 47 -13 67 -11 80 -25 20 -23 -29 2 -52 -1 -53 -7 0 -5 19 -11
42 -12 96 -5 238 -36 255 -56 18 -19 17 -19 -17 -12 l-35 7 25 -18 c14 -9 26
-18 28 -19 1 -1 0 -10 -4 -19 -5 -14 -27 -16 -169 -16 l-163 0 -15 -62 c-34
-136 -65 -442 -74 -718 -5 -159 -3 -191 12 -230 21 -57 26 -115 10 -136 -10
-15 -19 -14 -106 9 -195 52 -206 60 -235 164 -30 108 -28 614 2 891 l6 52 -79
0 c-90 0 -211 -13 -331 -37 -99 -19 -81 2 -224 -268 -150 -284 -288 -587 -288
-636 0 -11 -11 -31 -24 -44 -20 -20 -29 -22 -61 -15 -80 18 -95 29 -95 71 0
79 69 260 230 601 49 102 91 196 95 207 6 20 4 21 -102 19 -92 -2 -116 1 -165
21 -62 24 -67 33 -40 69 15 19 52 31 217 69 110 25 205 51 211 57 7 6 81 135
166 286 335 595 549 925 717 1104 38 40 88 76 107 76 6 0 35 -19 63 -41z"/>
<path d="M1844 3926 c-95 -105 -225 -290 -347 -495 -154 -257 -447 -770 -447
-781 0 -38 40 17 139 193 269 475 529 883 669 1049 45 54 82 99 82 102 0 23
-39 -5 -96 -68z"/>
<path d="M1808 3733 c-104 -146 -251 -373 -342 -528 -26 -44 -75 -125 -108
-180 -85 -141 -202 -355 -196 -360 4 -4 133 213 208 350 124 225 405 663 509
793 28 34 51 64 51 67 0 22 -32 -15 -122 -142z"/>
<path d="M1749 3469 c-160 -240 -448 -717 -464 -770 -7 -20 -5 -21 26 -16 19
3 107 14 197 23 150 16 163 19 167 38 53 264 97 464 141 649 31 125 54 233 52
239 -2 6 -56 -68 -119 -163z"/>
<path d="M1857 3255 c-50 -258 -75 -450 -41 -315 21 86 76 419 72 438 -2 9
-16 -46 -31 -123z"/>
<path d="M1456 2679 c-69 -16 -54 -21 42 -14 136 11 177 23 77 23 -44 0 -98
-4 -119 -9z"/>
<path d="M1295 2650 c-7 -12 12 -12 40 0 18 8 17 9 -7 9 -15 1 -30 -3 -33 -9z"/>
<path d="M795 2545 c-49 -12 -85 -23 -78 -24 17 -2 144 26 173 38 42 17 -1 11
-95 -14z"/>
<path d="M882 2338 c-22 -46 -76 -157 -120 -248 -91 -188 -150 -331 -181 -441
-24 -85 -24 -89 -12 -89 5 0 25 48 46 108 42 121 135 331 254 570 44 90 78
168 75 173 -12 20 -25 5 -62 -73z"/>
<path d="M997 2378 c-75 -129 -262 -526 -253 -536 2 -2 50 90 106 205 56 114
119 244 140 287 43 87 47 112 7 44z"/>
<path d="M1716 2333 c-14 -47 -26 -315 -18 -403 5 -52 10 -77 11 -55 0 22 6
136 11 254 10 202 9 247 -4 204z"/>
<path d="M726 1815 c-9 -26 -7 -32 5 -12 6 10 9 21 6 23 -2 3 -7 -2 -11 -11z"/>
<path d="M3899 3953 c-102 -106 -235 -292 -364 -508 -132 -221 -455 -786 -455
-796 0 -38 41 19 139 194 268 474 529 884 671 1052 44 52 80 96 80 99 0 18
-32 0 -71 -41z"/>
<path d="M3863 3768 c-102 -143 -272 -401 -352 -538 -35 -58 -83 -139 -108
-180 -70 -115 -213 -373 -213 -384 0 -20 55 71 208 344 143 256 409 670 512
798 27 34 50 64 50 67 0 20 -28 -11 -97 -107z"/>
<path d="M3879 3617 c-132 -178 -582 -917 -567 -932 8 -8 383 38 390 48 3 6 9
31 13 56 12 79 83 406 136 624 28 114 49 212 47 216 -2 5 -10 -1 -19 -12z"/>
<path d="M3887 3255 c-29 -147 -57 -330 -56 -355 2 -33 21 56 55 250 40 237
41 312 1 105z"/>
<path d="M3486 2679 c-69 -16 -54 -21 42 -14 136 11 177 23 77 23 -44 0 -98
-4 -119 -9z"/>
<path d="M3325 2650 c-7 -12 12 -12 40 0 18 8 17 9 -7 9 -15 1 -30 -3 -33 -9z"/>
<path d="M2825 2545 c-49 -12 -85 -23 -78 -24 17 -2 144 26 173 38 42 17 -1
11 -95 -14z"/>
<path d="M2861 2233 c-149 -301 -243 -528 -264 -640 -12 -63 12 -32 39 50 39
120 102 262 230 526 103 214 118 251 95 251 -4 0 -49 -84 -100 -187z"/>
<path d="M3027 2378 c-73 -127 -284 -574 -275 -584 3 -2 84 160 233 465 73
151 93 205 42 119z"/>
<path d="M3747 2338 c-14 -57 -26 -320 -18 -408 4 -52 9 -81 10 -63 0 17 6
133 12 258 10 215 9 266 -4 213z"/>
</g>
</svg>
